<svg xmlns="http://www.w3.org/2000/svg" version="1.1" xmlns:xlink="http://www.w3.org/1999/xlink" xmlns:svgjs="http://svgjs.dev/svgjs" width="1500" height="1653" viewBox="0 0 1500 1653"><g transform="matrix(1,0,0,1,-0.9508484310155154,-2.666129032258141)"><svg viewBox="0 0 225 248" data-background-color="#ffffff" preserveAspectRatio="xMidYMid meet" height="1653" width="1500" xmlns="http://www.w3.org/2000/svg" xmlns:xlink="http://www.w3.org/1999/xlink"><g id="tight-bounds" transform="matrix(1,0,0,1,0.142627264652333,0.4000000000000057)"><svg viewBox="0 0 224.71474547069533 247.2" height="247.2" width="224.71474547069533"><g><svg viewBox="0 0 395.52 435.09625412076196" height="247.2" width="224.71474547069533"><g transform="matrix(1,0,0,1,0,281.86151215655656)"><svg viewBox="0 0 395.52 153.2347419642054" height="153.2347419642054" width="395.52"><g id="textblocktransform"><svg viewBox="0 0 395.52 153.2347419642054" height="153.2347419642054" width="395.52" id="textblock"><g><svg viewBox="0 0 395.52 117.50124637186272" height="117.50124637186272" width="395.52"><g transform="matrix(1,0,0,1,0,0)"><svg width="395.52" viewBox="65.07 -38.99999999999999 292.84999999999997 84" height="117.50124637186272" data-palette-color="#f4ab4f"><svg></svg><svg></svg><g class="wordmark-text-0" data-fill-palette-color="primary" id="text-0"><path transform="translate(64.47,0)" d="M27.1-22.6v0c5 0 9.183 0.217 12.55 0.65 3.367 0.433 6.05 1.107 8.05 2.02 2 0.92 3.433 2.087 4.3 3.5 0.867 1.42 1.3 3.097 1.3 5.03v0c0 2.1-0.673 3.957-2.02 5.57-1.353 1.62-3.237 2.97-5.65 4.05-2.42 1.087-5.22 1.907-8.4 2.46-3.187 0.547-6.613 0.82-10.28 0.82v0c-4.067 0-7.767-0.3-11.1-0.9-3.333-0.6-6.167-1.527-8.5-2.78-2.333-1.247-4.073-2.853-5.22-4.82-1.153-1.967-1.613-4.317-1.38-7.05v0l21.35-1.45c-0.267 1-0.19 1.833 0.23 2.5 0.413 0.667 1.07 1.167 1.97 1.5 0.9 0.333 1.9 0.5 3 0.5v0c0.667 0 1.277-0.05 1.83-0.15 0.547-0.1 1.037-0.25 1.47-0.45 0.433-0.2 0.767-0.46 1-0.78 0.233-0.313 0.35-0.67 0.35-1.07v0c0-0.8-0.407-1.317-1.22-1.55-0.82-0.233-2.013-0.35-3.58-0.35v0c-0.067 0-0.14 0-0.22 0-0.087 0-0.17 0-0.25 0-0.087 0-0.18 0-0.28 0-0.1 0-0.19 0-0.27 0-0.087 0-0.163 0-0.23 0v0c-4.933 0-9.033-0.26-12.3-0.78-3.267-0.513-5.85-1.237-7.75-2.17-1.9-0.933-3.25-2.043-4.05-3.33-0.8-1.28-1.2-2.72-1.2-4.32v0c0-1.7 0.45-3.243 1.35-4.63 0.9-1.38 2.177-2.597 3.83-3.65 1.647-1.047 3.58-1.92 5.8-2.62 2.213-0.7 4.647-1.233 7.3-1.6 2.647-0.367 5.42-0.55 8.32-0.55v0c4.1 0 7.777 0.367 11.03 1.1 3.247 0.733 5.98 1.783 8.2 3.15 2.213 1.367 3.803 3 4.77 4.9 0.967 1.9 1.2 4.033 0.7 6.4v0l-20.65 0.95c0.367-0.967 0.35-1.76-0.05-2.38-0.4-0.613-1.023-1.063-1.87-1.35-0.853-0.28-1.813-0.42-2.88-0.42v0c-0.667 0-1.267 0.057-1.8 0.17-0.533 0.12-0.99 0.287-1.37 0.5-0.387 0.22-0.687 0.48-0.9 0.78-0.22 0.3-0.33 0.617-0.33 0.95v0c0 0.4 0.133 0.723 0.4 0.97 0.267 0.253 0.677 0.43 1.23 0.53 0.547 0.1 1.27 0.15 2.17 0.15v0c0.067 0 0.143 0 0.23 0 0.08 0 0.163 0 0.25 0 0.08 0 0.163 0 0.25 0 0.08 0 0.163 0 0.25 0 0.08 0 0.17 0 0.27 0zM75.65-37.5h-20.75c0 1.667 0 3.373 0 5.12 0 1.753 0 3.513 0 5.28 0 1.767 0 3.533 0 5.3v0c0 1.333 0 2.673 0 4.02 0 1.353 0 2.663 0 3.93v0c0 2.033 0.45 3.873 1.35 5.52 0.9 1.653 2.143 3.087 3.73 4.3 1.58 1.22 3.413 2.247 5.5 3.08 2.08 0.833 4.313 1.45 6.7 1.85 2.38 0.4 4.787 0.6 7.22 0.6v0c3.067 0 6.06-0.317 8.98-0.95 2.913-0.633 5.537-1.593 7.87-2.88 2.333-1.28 4.193-2.88 5.58-4.8 1.38-1.913 2.07-4.153 2.07-6.72v0c0-2.533 0-5.143 0-7.83 0-2.68 0-5.353 0-8.02 0-2.667 0-5.267 0-7.8v0h-20.75c0 1.833 0 3.6 0 5.3 0 1.7 0 3.35 0 4.95 0 1.6 0 3.183 0 4.75 0 1.567 0 3.15 0 4.75v0c0 0.967-0.383 1.7-1.15 2.2-0.767 0.5-1.633 0.75-2.6 0.75v0c-0.467 0-0.923-0.067-1.37-0.2-0.453-0.133-0.853-0.327-1.2-0.58-0.353-0.247-0.637-0.553-0.85-0.92-0.22-0.367-0.33-0.8-0.33-1.3v0c0-3.167 0-6.333 0-9.5 0-3.167 0-6.567 0-10.2zM105.9-37.5h31.65c3.1 0 5.81 0.423 8.13 1.27 2.313 0.853 4.23 2.007 5.75 3.46 1.513 1.447 2.653 3.087 3.42 4.92 0.767 1.833 1.15 3.733 1.15 5.7v0c0 2.1-0.39 4.09-1.17 5.97-0.787 1.887-1.953 3.563-3.5 5.03-1.553 1.467-3.48 2.623-5.78 3.47-2.3 0.853-4.967 1.28-8 1.28v0h-10.75c0 0-0.007 0.007-0.02 0.02-0.02 0.02-0.037 0.03-0.05 0.03-0.02 0-0.03 0.017-0.03 0.05v0 6.3h-20.8c0-2.233 0-4.467 0-6.7 0-2.233 0-4.467 0-6.7 0-2.233 0-4.467 0-6.7 0-2.233 0-4.467 0-6.7v0c0-1.8 0-3.593 0-5.38 0-1.78 0-3.553 0-5.32zM126.8-17.25h4.6c1 0 1.843-0.177 2.53-0.53 0.68-0.347 1.187-0.797 1.52-1.35 0.333-0.547 0.5-1.103 0.5-1.67v0c0-0.6-0.167-1.16-0.5-1.68-0.333-0.513-0.833-0.937-1.5-1.27-0.667-0.333-1.517-0.5-2.55-0.5v0h-4.6c-0.033 0-0.057 0.007-0.07 0.02-0.02 0.02-0.03 0.047-0.03 0.08v0 6.85c0 0 0.01 0 0.03 0 0.013 0 0.03 0.007 0.05 0.02 0.013 0.02 0.02 0.03 0.02 0.03zM178.15-14.8v0c0 0.033 0.01 0.057 0.03 0.07 0.013 0.02 0.037 0.03 0.07 0.03v0h19.5v14.7h-40.35c0-2.067 0-4.133 0-6.2 0-2.067 0-4.143 0-6.23 0-2.08 0-4.153 0-6.22 0-2.067 0-4.133 0-6.2v0c0-2.1 0-4.21 0-6.33 0-2.113 0-4.22 0-6.32v0h20.75c0 1.9 0 3.79 0 5.67 0 1.887 0 3.78 0 5.68 0 1.9 0 3.79 0 5.67 0 1.887 0 3.78 0 5.68zM241.45-37.5v12.6h-21.75c-0.033 0-0.05 0-0.05 0v0 0 2.75c0 0.033 0 0.057 0 0.07 0 0.02 0 0.03 0 0.03 0 0 0.01 0 0.03 0 0.013 0 0.02 0 0.02 0v0h21v7.05h-21c0 0-0.007 0-0.02 0-0.02 0-0.03 0.007-0.03 0.02 0 0.02 0 0.047 0 0.08v0 2.8 0 0c0 0 0.01 0 0.03 0 0.013 0 0.02 0 0.02 0v0h22.05v12.1h-42.35c0-1.967 0-3.943 0-5.93 0-1.98 0-3.953 0-5.92 0-1.967 0-3.943 0-5.93 0-1.98 0-3.963 0-5.95 0-1.98 0-3.953 0-5.92v0c0-1.3 0-2.61 0-3.93 0-1.313 0-2.62 0-3.92v0zM268.85-18.75v0c0 0 0 0.017 0 0.05 0 0.033-0.01 0.057-0.03 0.07-0.013 0.02-0.02 0.047-0.02 0.08v0l-4.2 18.55h-21.75c0.867-2.133 1.693-4.26 2.48-6.38 0.78-2.113 1.563-4.237 2.35-6.37 0.78-2.133 1.603-4.25 2.47-6.35v0c0 0 0-0.01 0-0.03 0-0.013 0-0.02 0-0.02 0 0 0-0.01 0-0.03 0-0.013 0-0.02 0-0.02v0c-1.3-3.067-2.517-6.127-3.65-9.18-1.133-3.047-2.35-6.087-3.65-9.12v0h22.5l3.45 18.5c0 0.033 0.007 0.067 0.02 0.1 0.02 0.033 0.03 0.083 0.03 0.15zM267.25-16.1v0c0-0.033 0.007-0.06 0.02-0.08 0.02-0.013 0.03-0.037 0.03-0.07 0-0.033 0-0.05 0-0.05v0c0.5-2.367 0.983-4.727 1.45-7.08 0.467-2.347 0.943-4.703 1.43-7.07 0.48-2.367 0.953-4.717 1.42-7.05v0h21.7c-1.233 3.167-2.4 6.35-3.5 9.55-1.1 3.2-2.283 6.383-3.55 9.55v0c0 0 0 0.007 0 0.02 0 0.02 0 0.03 0 0.03 0 0 0 0.017 0 0.05v0c0.5 1.233 0.993 2.457 1.48 3.67 0.48 1.22 0.953 2.437 1.42 3.65 0.467 1.22 0.933 2.437 1.4 3.65 0.467 1.22 0.943 2.437 1.43 3.65 0.48 1.22 0.97 2.447 1.47 3.68v0h-22.6l-3.55-15.9c0-0.033 0-0.06 0-0.08 0-0.013-0.01-0.037-0.03-0.07-0.013-0.033-0.02-0.05-0.02-0.05z" fill="#f4ab4f" fill-rule="nonzero" stroke="none" stroke-width="1" stroke-linecap="butt" stroke-linejoin="miter" stroke-miterlimit="10" stroke-dasharray="" stroke-dashoffset="0" font-family="none" font-weight="none" font-size="none" text-anchor="none" style="mix-blend-mode: normal" data-fill-palette-color="primary" opacity="1"></path><path transform="translate(105.45,43.5)" d="M27.1-22.6v0c5 0 9.183 0.217 12.55 0.65 3.367 0.433 6.05 1.107 8.05 2.02 2 0.92 3.433 2.087 4.3 3.5 0.867 1.42 1.3 3.097 1.3 5.03v0c0 2.1-0.673 3.957-2.02 5.57-1.353 1.62-3.237 2.97-5.65 4.05-2.42 1.087-5.22 1.907-8.4 2.46-3.187 0.547-6.613 0.82-10.28 0.82v0c-4.067 0-7.767-0.3-11.1-0.9-3.333-0.6-6.167-1.527-8.5-2.78-2.333-1.247-4.073-2.853-5.22-4.82-1.153-1.967-1.613-4.317-1.38-7.05v0l21.35-1.45c-0.267 1-0.19 1.833 0.23 2.5 0.413 0.667 1.07 1.167 1.97 1.5 0.9 0.333 1.9 0.5 3 0.5v0c0.667 0 1.277-0.05 1.83-0.15 0.547-0.1 1.037-0.25 1.47-0.45 0.433-0.2 0.767-0.46 1-0.78 0.233-0.313 0.35-0.67 0.35-1.07v0c0-0.8-0.407-1.317-1.22-1.55-0.82-0.233-2.013-0.35-3.58-0.35v0c-0.067 0-0.14 0-0.22 0-0.087 0-0.17 0-0.25 0-0.087 0-0.18 0-0.28 0-0.1 0-0.19 0-0.27 0-0.087 0-0.163 0-0.23 0v0c-4.933 0-9.033-0.26-12.3-0.78-3.267-0.513-5.85-1.237-7.75-2.17-1.9-0.933-3.25-2.043-4.05-3.33-0.8-1.28-1.2-2.72-1.2-4.32v0c0-1.7 0.45-3.243 1.35-4.63 0.9-1.38 2.177-2.597 3.83-3.65 1.647-1.047 3.58-1.92 5.8-2.62 2.213-0.7 4.647-1.233 7.3-1.6 2.647-0.367 5.42-0.55 8.32-0.55v0c4.1 0 7.777 0.367 11.03 1.1 3.247 0.733 5.98 1.783 8.2 3.15 2.213 1.367 3.803 3 4.77 4.9 0.967 1.9 1.2 4.033 0.7 6.4v0l-20.65 0.95c0.367-0.967 0.35-1.76-0.05-2.38-0.4-0.613-1.023-1.063-1.87-1.35-0.853-0.28-1.813-0.42-2.88-0.42v0c-0.667 0-1.267 0.057-1.8 0.17-0.533 0.12-0.99 0.287-1.37 0.5-0.387 0.22-0.687 0.48-0.9 0.78-0.22 0.3-0.33 0.617-0.33 0.95v0c0 0.4 0.133 0.723 0.4 0.97 0.267 0.253 0.677 0.43 1.23 0.53 0.547 0.1 1.27 0.15 2.17 0.15v0c0.067 0 0.143 0 0.23 0 0.08 0 0.163 0 0.25 0 0.08 0 0.163 0 0.25 0 0.08 0 0.163 0 0.25 0 0.08 0 0.17 0 0.27 0zM82.65-37.5v0h20.75c0 2.1 0 4.2 0 6.3 0 2.1 0 4.2 0 6.3 0 2.1 0 4.217 0 6.35v0c0 3.067 0 6.15 0 9.25 0 3.1 0 6.2 0 9.3v0h-20.75c0-2.033 0-4.067 0-6.1 0-2.033 0-4.067 0-6.1v0c0-0.033-0.007-0.06-0.02-0.08-0.02-0.013-0.047-0.02-0.08-0.02v0h-6.85c-0.033 0-0.05 0.007-0.05 0.02 0 0.02 0 0.047 0 0.08v0c0 2.033 0 4.067 0 6.1 0 2.033 0 4.067 0 6.1v0h-20.75c0-2 0-4 0-6 0-2 0-4 0-6 0-2 0-4 0-6 0-2 0-4 0-6 0-2 0-4 0-6v0c0-1.267 0-2.523 0-3.77 0-1.253 0-2.497 0-3.73v0h20.75c0 1.6 0 3.217 0 4.85 0 1.633 0 3.257 0 4.87 0 1.62 0 3.247 0 4.88v0c0 0.033 0 0.057 0 0.07 0 0.02 0.017 0.03 0.05 0.03v0h6.85c0.033 0 0.06-0.01 0.08-0.03 0.013-0.013 0.02-0.037 0.02-0.07v0c0-2.433 0-4.867 0-7.3 0-2.433 0-4.867 0-7.3zM132.4-39v0c-3.067 0-5.873 0.223-8.42 0.67-2.553 0.453-4.847 1.103-6.88 1.95-2.033 0.853-3.807 1.87-5.32 3.05-1.52 1.187-2.787 2.53-3.8 4.03-1.02 1.5-1.787 3.133-2.3 4.9-0.52 1.767-0.78 3.633-0.78 5.6v0c0 1.5 0.16 2.983 0.48 4.45 0.313 1.467 0.813 2.867 1.5 4.2 0.68 1.333 1.547 2.59 2.6 3.77 1.047 1.187 2.297 2.263 3.75 3.23 1.447 0.967 3.12 1.79 5.02 2.47 1.9 0.687 4.027 1.223 6.38 1.61 2.347 0.38 4.937 0.57 7.77 0.57v0c3.967 0 7.46-0.357 10.48-1.07 3.013-0.72 5.603-1.723 7.77-3.01 2.167-1.28 3.933-2.78 5.3-4.5 1.367-1.713 2.367-3.563 3-5.55 0.633-1.98 0.95-4.037 0.95-6.17v0c0-3.933-1.017-7.417-3.05-10.45-2.033-3.033-5.083-5.417-9.15-7.15-4.067-1.733-9.167-2.6-15.3-2.6zM132.45-23.1v0c1.167 0 2.15 0.133 2.95 0.4 0.8 0.267 1.433 0.607 1.9 1.02 0.467 0.42 0.81 0.88 1.03 1.38 0.213 0.5 0.32 1 0.32 1.5v0c0 0.433-0.067 0.857-0.2 1.27-0.133 0.42-0.357 0.823-0.67 1.21-0.32 0.38-0.72 0.71-1.2 0.99-0.487 0.287-1.07 0.513-1.75 0.68-0.687 0.167-1.48 0.25-2.38 0.25v0c-1.533 0-2.767-0.217-3.7-0.65-0.933-0.433-1.6-0.983-2-1.65-0.4-0.667-0.6-1.35-0.6-2.05v0c0-0.533 0.11-1.06 0.33-1.58 0.213-0.513 0.563-0.98 1.05-1.4 0.48-0.413 1.13-0.747 1.95-1 0.813-0.247 1.803-0.37 2.97-0.37zM161.4-37.5h31.65c3.1 0 5.81 0.423 8.13 1.27 2.313 0.853 4.23 2.007 5.75 3.46 1.513 1.447 2.653 3.087 3.42 4.92 0.767 1.833 1.15 3.733 1.15 5.7v0c0 2.1-0.39 4.09-1.17 5.97-0.787 1.887-1.953 3.563-3.5 5.03-1.553 1.467-3.48 2.623-5.78 3.47-2.3 0.853-4.967 1.28-8 1.28v0h-10.75c0 0-0.007 0.007-0.02 0.02-0.02 0.02-0.037 0.03-0.05 0.03-0.02 0-0.03 0.017-0.03 0.05v0 6.3h-20.8c0-2.233 0-4.467 0-6.7 0-2.233 0-4.467 0-6.7 0-2.233 0-4.467 0-6.7 0-2.233 0-4.467 0-6.7v0c0-1.8 0-3.593 0-5.38 0-1.78 0-3.553 0-5.32zM182.3-17.25h4.6c1 0 1.843-0.177 2.53-0.53 0.68-0.347 1.187-0.797 1.52-1.35 0.333-0.547 0.5-1.103 0.5-1.67v0c0-0.6-0.167-1.16-0.5-1.68-0.333-0.513-0.833-0.937-1.5-1.27-0.667-0.333-1.517-0.5-2.55-0.5v0h-4.6c-0.033 0-0.057 0.007-0.07 0.02-0.02 0.02-0.03 0.047-0.03 0.08v0 6.85c0 0 0.01 0 0.03 0 0.013 0 0.03 0.007 0.05 0.02 0.013 0.02 0.02 0.03 0.02 0.03z" fill="#f4ab4f" fill-rule="nonzero" stroke="none" stroke-width="1" stroke-linecap="butt" stroke-linejoin="miter" stroke-miterlimit="10" stroke-dasharray="" stroke-dashoffset="0" font-family="none" font-weight="none" font-size="none" text-anchor="none" style="mix-blend-mode: normal" data-fill-palette-color="primary" opacity="1"></path></g></svg></g></svg></g><g transform="matrix(1,0,0,1,69.21599999999998,130.41433351736384)"><svg viewBox="0 0 257.088 22.820408446841576" height="22.820408446841576" width="257.088"><g transform="matrix(1,0,0,1,0,0)"><svg width="257.088" viewBox="0.7 -37.7 546.89 48.550000000000004" height="22.820408446841576" data-palette-color="#f4ab4f"><path d="M28.5-34.55L34.4-34.55 29.55 0 21.2 0 17.5-27.8 13.65 0 5.45 0 0.7-34.55 6.85-34.55 10.05-5.1 14.2-34.55 20.95-34.55 25-5.1 28.5-34.55ZM50.3-27.15Q53.15-27.15 54.8-25.1 56.45-23.05 56.45-19.6L56.45-19.6 56.45 0 50.3 0 50.3-18.9Q50.3-20.8 49.77-21.63 49.25-22.45 48.25-22.45L48.25-22.45Q46.15-22.45 44.1-18.5L44.1-18.5 44.1 0 37.95 0 37.95-37 44.1-37.65 44.1-23.3Q45.35-25.25 46.82-26.2 48.3-27.15 50.3-27.15L50.3-27.15ZM80.85-13.85Q80.85-13.4 80.7-11.3L80.7-11.3 67.05-11.3Q67.25-7.2 68.47-5.58 69.7-3.95 71.95-3.95L71.95-3.95Q73.5-3.95 74.75-4.48 76-5 77.45-6.15L77.45-6.15 80-2.65Q76.5 0.75 71.6 0.75L71.6 0.75Q66.4 0.75 63.62-2.85 60.85-6.45 60.85-13L60.85-13Q60.85-19.55 63.5-23.35 66.15-27.15 71-27.15L71-27.15Q75.65-27.15 78.25-23.78 80.85-20.4 80.85-13.85L80.85-13.85ZM74.85-15.3L74.85-15.65Q74.85-19.4 73.95-21.13 73.05-22.85 71.05-22.85L71.05-22.85Q69.2-22.85 68.22-21.18 67.25-19.5 67.05-15.3L67.05-15.3 74.85-15.3ZM96.79-27.1Q97.94-27.1 98.84-26.75L98.84-26.75 97.84-20.85Q96.84-21.1 95.99-21.1L95.99-21.1Q94.09-21.1 92.99-19.45 91.89-17.8 91.29-14.55L91.29-14.55 91.29 0 85.14 0 85.14-26.45 90.49-26.45 90.94-21.85Q92.79-27.1 96.79-27.1L96.79-27.1ZM120.54-13.85Q120.54-13.4 120.39-11.3L120.39-11.3 106.74-11.3Q106.94-7.2 108.17-5.58 109.39-3.95 111.64-3.95L111.64-3.95Q113.19-3.95 114.44-4.48 115.69-5 117.14-6.15L117.14-6.15 119.69-2.65Q116.19 0.75 111.29 0.75L111.29 0.75Q106.09 0.75 103.32-2.85 100.54-6.45 100.54-13L100.54-13Q100.54-19.55 103.19-23.35 105.84-27.15 110.69-27.15L110.69-27.15Q115.34-27.15 117.94-23.78 120.54-20.4 120.54-13.85L120.54-13.85ZM114.54-15.3L114.54-15.65Q114.54-19.4 113.64-21.13 112.74-22.85 110.74-22.85L110.74-22.85Q108.89-22.85 107.92-21.18 106.94-19.5 106.74-15.3L106.74-15.3 114.54-15.3ZM134.84-34.55L141.19-34.55 141.19-5.25 152.34-5.25 151.64 0 134.84 0 134.84-34.55ZM174.38-13.85Q174.38-13.4 174.23-11.3L174.23-11.3 160.58-11.3Q160.78-7.2 162.01-5.58 163.23-3.95 165.48-3.95L165.48-3.95Q167.03-3.95 168.28-4.48 169.53-5 170.98-6.15L170.98-6.15 173.53-2.65Q170.03 0.75 165.13 0.75L165.13 0.75Q159.93 0.75 157.16-2.85 154.38-6.45 154.38-13L154.38-13Q154.38-19.55 157.03-23.35 159.68-27.15 164.53-27.15L164.53-27.15Q169.18-27.15 171.78-23.78 174.38-20.4 174.38-13.85L174.38-13.85ZM168.38-15.3L168.38-15.65Q168.38-19.4 167.48-21.13 166.58-22.85 164.58-22.85L164.58-22.85Q162.73-22.85 161.76-21.18 160.78-19.5 160.58-15.3L160.58-15.3 168.38-15.3ZM196.63-29.85L198.18-25.1Q197.13-24.6 195.66-24.4 194.18-24.2 191.98-24.2L191.98-24.2Q194.08-23.2 195.11-21.53 196.13-19.85 196.13-17.4L196.13-17.4Q196.13-13.4 193.68-10.95 191.23-8.5 187.03-8.5L187.03-8.5Q185.78-8.5 184.48-8.9L184.48-8.9Q183.58-8.15 183.58-6.85L183.58-6.85Q183.58-5.85 184.13-5.35 184.68-4.85 186.18-4.85L186.18-4.85 188.98-4.85Q192.98-4.85 195.33-2.78 197.68-0.7 197.68 2.5L197.68 2.5Q197.68 6.3 194.76 8.58 191.83 10.85 186.43 10.85L186.43 10.85Q180.73 10.85 178.46 8.75 176.18 6.65 176.18 2.6L176.18 2.6 181.63 2.6Q181.63 4.75 182.63 5.65 183.63 6.55 186.48 6.55L186.48 6.55Q189.23 6.55 190.38 5.6 191.53 4.65 191.53 2.9L191.53 2.9Q191.53 1.2 190.58 0.4 189.63-0.4 187.63-0.4L187.63-0.4 185.73-0.4Q181.93-0.4 180.18-1.75 178.43-3.1 178.43-5.45L178.43-5.45Q178.43-6.8 179.16-8.03 179.88-9.25 181.13-10.2L181.13-10.2Q179.08-11.5 178.13-13.3 177.18-15.1 177.18-17.7L177.18-17.7Q177.18-22.05 179.78-24.58 182.38-27.1 186.78-27.1L186.78-27.1Q190.03-27.1 192.16-27.8 194.28-28.5 196.63-29.85L196.63-29.85ZM186.78-23Q185.03-23 184.13-21.75 183.23-20.5 183.23-17.8L183.23-17.8Q183.23-15.25 184.13-13.88 185.03-12.5 186.73-12.5L186.73-12.5Q188.48-12.5 189.33-13.73 190.18-14.95 190.18-17.85L190.18-17.85Q190.18-20.55 189.36-21.78 188.53-23 186.78-23L186.78-23ZM219.78-13.85Q219.78-13.4 219.63-11.3L219.63-11.3 205.98-11.3Q206.18-7.2 207.4-5.58 208.63-3.95 210.88-3.95L210.88-3.95Q212.43-3.95 213.68-4.48 214.93-5 216.38-6.15L216.38-6.15 218.93-2.65Q215.43 0.75 210.53 0.75L210.53 0.75Q205.33 0.75 202.55-2.85 199.78-6.45 199.78-13L199.78-13Q199.78-19.55 202.43-23.35 205.08-27.15 209.93-27.15L209.93-27.15Q214.58-27.15 217.18-23.78 219.78-20.4 219.78-13.85L219.78-13.85ZM213.78-15.3L213.78-15.65Q213.78-19.4 212.88-21.13 211.98-22.85 209.98-22.85L209.98-22.85Q208.13-22.85 207.15-21.18 206.18-19.5 205.98-15.3L205.98-15.3 213.78-15.3ZM236.43-27.15Q239.28-27.15 240.93-25.1 242.58-23.05 242.58-19.6L242.58-19.6 242.58 0 236.43 0 236.43-18.9Q236.43-20.8 235.9-21.63 235.38-22.45 234.38-22.45L234.38-22.45Q232.28-22.45 230.23-18.5L230.23-18.5 230.23 0 224.08 0 224.08-26.45 229.43-26.45 229.88-23Q231.23-25.1 232.75-26.13 234.28-27.15 236.43-27.15L236.43-27.15ZM261.07-37.7L267.22-37.05 267.22 0 261.77 0 261.47-3.05Q259.12 0.75 255.42 0.75L255.42 0.75Q251.32 0.75 249.15-2.93 246.97-6.6 246.97-13.2L246.97-13.2Q246.97-17.4 248.1-20.58 249.22-23.75 251.22-25.45 253.22-27.15 255.82-27.15L255.82-27.15Q259.02-27.15 261.07-24.5L261.07-24.5 261.07-37.7ZM257.17-3.9Q258.32-3.9 259.25-4.7 260.17-5.5 261.07-7L261.07-7 261.07-19.85Q259.47-22.55 257.42-22.55L257.42-22.55Q253.37-22.55 253.37-13.25L253.37-13.25Q253.37-8.2 254.37-6.05 255.37-3.9 257.17-3.9L257.17-3.9ZM280.27-27.15Q284.97-27.15 288.22-24.05L288.22-24.05 285.87-20.7Q284.47-21.7 283.22-22.2 281.97-22.7 280.67-22.7L280.67-22.7Q279.22-22.7 278.4-21.93 277.57-21.15 277.57-19.8L277.57-19.8Q277.57-18.45 278.5-17.63 279.42-16.8 282.22-15.7L282.22-15.7Q285.67-14.35 287.32-12.5 288.97-10.65 288.97-7.55L288.97-7.55Q288.97-3.7 286.27-1.48 283.57 0.75 279.42 0.75L279.42 0.75Q276.72 0.75 274.45-0.23 272.17-1.2 270.47-2.95L270.47-2.95 273.47-6.25Q276.27-3.8 279.17-3.8L279.17-3.8Q280.82-3.8 281.77-4.67 282.72-5.55 282.72-7.1L282.72-7.1Q282.72-8.25 282.32-8.97 281.92-9.7 280.92-10.33 279.92-10.95 277.92-11.7L277.92-11.7Q274.47-13.05 273-14.85 271.52-16.65 271.52-19.45L271.52-19.45Q271.52-22.8 273.9-24.98 276.27-27.15 280.27-27.15L280.27-27.15ZM316.87-18.3Q320.22-17.55 322.14-15.63 324.07-13.7 324.07-9.9L324.07-9.9Q324.07-4.9 320.69-2.45 317.32 0 311.52 0L311.52 0 302.82 0 302.82-34.55 310.37-34.55Q316.32-34.55 319.57-32.3 322.82-30.05 322.82-25.75L322.82-25.75Q322.82-22.85 321.19-20.95 319.57-19.05 316.87-18.3L316.87-18.3ZM311.02-29.85L309.17-29.85 309.17-20.3 311.32-20.3Q316.37-20.3 316.37-25.2L316.37-25.2Q316.37-27.65 315.09-28.75 313.82-29.85 311.02-29.85L311.02-29.85ZM311.57-4.8Q314.47-4.8 315.97-6.03 317.47-7.25 317.47-10.15L317.47-10.15Q317.47-13.05 316.07-14.43 314.67-15.8 311.72-15.8L311.72-15.8 309.17-15.8 309.17-4.8 311.57-4.8ZM346.91-13.85Q346.91-13.4 346.76-11.3L346.76-11.3 333.11-11.3Q333.31-7.2 334.54-5.58 335.76-3.95 338.01-3.95L338.01-3.95Q339.56-3.95 340.81-4.48 342.06-5 343.51-6.15L343.51-6.15 346.06-2.65Q342.56 0.75 337.66 0.75L337.66 0.75Q332.46 0.75 329.69-2.85 326.91-6.45 326.91-13L326.91-13Q326.91-19.55 329.56-23.35 332.21-27.15 337.06-27.15L337.06-27.15Q341.71-27.15 344.31-23.78 346.91-20.4 346.91-13.85L346.91-13.85ZM340.91-15.3L340.91-15.65Q340.91-19.4 340.01-21.13 339.11-22.85 337.11-22.85L337.11-22.85Q335.26-22.85 334.29-21.18 333.31-19.5 333.11-15.3L333.11-15.3 340.91-15.3ZM360.71-27.15Q362.86-27.15 364.61-26.43 366.36-25.7 367.96-24.15L367.96-24.15 365.31-20.65Q364.21-21.55 363.24-21.98 362.26-22.4 361.11-22.4L361.11-22.4Q358.86-22.4 357.71-20.28 356.56-18.15 356.56-13.1L356.56-13.1Q356.56-8.2 357.74-6.2 358.91-4.2 361.11-4.2L361.11-4.2Q362.21-4.2 363.11-4.6 364.01-5 365.21-5.85L365.21-5.85 367.96-2.3Q364.76 0.75 360.81 0.75L360.81 0.75Q355.71 0.75 352.88-2.73 350.06-6.2 350.06-13L350.06-13Q350.06-17.4 351.36-20.6 352.66-23.8 355.09-25.48 357.51-27.15 360.71-27.15L360.71-27.15ZM380.41-27.15Q385.41-27.15 388.18-23.65 390.96-20.15 390.96-13.25L390.96-13.25Q390.96-6.65 388.16-2.95 385.36 0.75 380.41 0.75L380.41 0.75Q375.46 0.75 372.66-2.88 369.86-6.5 369.86-13.25L369.86-13.25Q369.86-19.95 372.66-23.55 375.46-27.15 380.41-27.15L380.41-27.15ZM380.41-22.5Q378.26-22.5 377.26-20.38 376.26-18.25 376.26-13.25L376.26-13.25Q376.26-8.2 377.26-6.08 378.26-3.95 380.41-3.95L380.41-3.95Q382.56-3.95 383.56-6.08 384.56-8.2 384.56-13.25L384.56-13.25Q384.56-18.3 383.56-20.4 382.56-22.5 380.41-22.5L380.41-22.5ZM419.16-27.15Q421.81-27.15 423.41-25.1 425.01-23.05 425.01-19.6L425.01-19.6 425.01 0 418.96 0 418.96-18.95Q418.96-20.85 418.46-21.68 417.96-22.5 417.01-22.5L417.01-22.5Q415.06-22.5 413.26-18.8L413.26-18.8 413.26 0 407.26 0 407.26-18.95Q407.26-22.5 405.36-22.5L405.36-22.5Q403.31-22.5 401.56-18.8L401.56-18.8 401.56 0 395.51 0 395.51-26.45 400.86-26.45 401.26-23.05Q403.86-27.15 407.51-27.15L407.51-27.15Q409.36-27.15 410.71-26 412.06-24.85 412.76-22.75L412.76-22.75Q415.41-27.15 419.16-27.15L419.16-27.15ZM449.35-13.85Q449.35-13.4 449.2-11.3L449.2-11.3 435.55-11.3Q435.75-7.2 436.98-5.58 438.2-3.95 440.45-3.95L440.45-3.95Q442-3.95 443.25-4.48 444.5-5 445.95-6.15L445.95-6.15 448.5-2.65Q445 0.75 440.1 0.75L440.1 0.75Q434.9 0.75 432.13-2.85 429.35-6.45 429.35-13L429.35-13Q429.35-19.55 432-23.35 434.65-27.15 439.5-27.15L439.5-27.15Q444.15-27.15 446.75-23.78 449.35-20.4 449.35-13.85L449.35-13.85ZM443.35-15.3L443.35-15.65Q443.35-19.4 442.45-21.13 441.55-22.85 439.55-22.85L439.55-22.85Q437.7-22.85 436.73-21.18 435.75-19.5 435.55-15.3L435.55-15.3 443.35-15.3ZM461.05-34.55L482.6-34.55 481.9-29.55 474.8-29.55 474.8 0 468.45 0 468.45-29.55 461.05-29.55 461.05-34.55ZM494.9-27.15Q499.9-27.15 502.67-23.65 505.45-20.15 505.45-13.25L505.45-13.25Q505.45-6.65 502.65-2.95 499.85 0.75 494.9 0.75L494.9 0.75Q489.95 0.75 487.15-2.88 484.35-6.5 484.35-13.25L484.35-13.25Q484.35-19.95 487.15-23.55 489.95-27.15 494.9-27.15L494.9-27.15ZM494.9-22.5Q492.75-22.5 491.75-20.38 490.75-18.25 490.75-13.25L490.75-13.25Q490.75-8.2 491.75-6.08 492.75-3.95 494.9-3.95L494.9-3.95Q497.05-3.95 498.05-6.08 499.05-8.2 499.05-13.25L499.05-13.25Q499.05-18.3 498.05-20.4 497.05-22.5 494.9-22.5L494.9-22.5ZM528.64-26.45L521.64 0.1Q520.34 4.9 517.44 7.65 514.54 10.4 509.69 10.85L509.69 10.85 508.99 6.5Q512.14 5.85 513.72 4.42 515.29 3 516.19 0L516.19 0 513.89 0 507.19-26.45 513.44-26.45 517.84-4.1 522.54-26.45 528.64-26.45ZM538.89-27.15Q543.59-27.15 546.84-24.05L546.84-24.05 544.49-20.7Q543.09-21.7 541.84-22.2 540.59-22.7 539.29-22.7L539.29-22.7Q537.84-22.7 537.01-21.93 536.19-21.15 536.19-19.8L536.19-19.8Q536.19-18.45 537.11-17.63 538.04-16.8 540.84-15.7L540.84-15.7Q544.29-14.35 545.94-12.5 547.59-10.65 547.59-7.55L547.59-7.55Q547.59-3.7 544.89-1.48 542.19 0.75 538.04 0.75L538.04 0.75Q535.34 0.75 533.06-0.23 530.79-1.2 529.09-2.95L529.09-2.95 532.09-6.25Q534.89-3.8 537.79-3.8L537.79-3.8Q539.44-3.8 540.39-4.67 541.34-5.55 541.34-7.1L541.34-7.1Q541.34-8.25 540.94-8.97 540.54-9.7 539.54-10.33 538.54-10.95 536.54-11.7L536.54-11.7Q533.09-13.05 531.61-14.85 530.14-16.65 530.14-19.45L530.14-19.45Q530.14-22.8 532.51-24.98 534.89-27.15 538.89-27.15L538.89-27.15Z" opacity="1" transform="matrix(1,0,0,1,0,0)" fill="#f4ab4f" class="slogan-text-1" data-fill-palette-color="secondary" id="text-1"></path></svg></g></svg></g></svg></g></svg></g><g transform="matrix(1,0,0,1,63.28578749447226,0)"><svg viewBox="0 0 268.94842501105546 268.94842501105546" height="268.94842501105546" width="268.94842501105546"><g><svg></svg></g><g id="icon-0"><svg viewBox="0 0 268.94842501105546 268.94842501105546" height="268.94842501105546" width="268.94842501105546"><g><path transform="scale(2.68948,2.68948)" d="M30 100c-16.569 0-30-13.431-30-30v-40c0-16.569 13.431-30 30-30h40c16.569 0 30 13.431 30 30v40c0 16.569-13.431 30-30 30z" fill="#f4ab4f" fill-rule="nonzero" stroke="none" stroke-width="1" stroke-linecap="butt" stroke-linejoin="miter" stroke-miterlimit="10" stroke-dasharray="" stroke-dashoffset="0" font-family="none" font-weight="none" font-size="none" text-anchor="none" style="mix-blend-mode: normal" data-fill-palette-color="accent"></path></g><g transform="matrix(1,0,0,1,53.7896850022111,53.7896850022111)"><svg viewBox="0 0 161.36905500663326 161.36905500663326" height="161.36905500663326" width="161.36905500663326"><g><svg xmlns="http://www.w3.org/2000/svg" xmlns:xlink="http://www.w3.org/1999/xlink" version="1.1" x="0" y="0" viewBox="0 0 26 26" style="enable-background:new 0 0 26 26;" xml:space="preserve" height="161.36905500663326" width="161.36905500663326" class="icon-dxe-0" data-fill-palette-color="quaternary" id="dxe-0"><g fill="#d62176" data-fill-palette-color="quaternary"><path d="M13 0C5.82 0 0 5.82 0 13S5.82 26 13 26 26 20.18 26 13 20.18 0 13 0M11.248 20.07C10.077 21.242 8.093 21.157 5.945 19.01 3.798 16.862 4.178 13 4.178 13S8.04 12.62 10.188 14.768C12.335 16.915 12.42 18.899 11.248 20.07M10 9.5C10 6.463 13 4 13 4S16 6.463 16 9.5 14.656 14 13 14 10 12.537 10 9.5M20.055 19.01C17.907 21.157 15.923 21.242 14.752 20.07 13.58 18.899 13.665 16.915 15.812 14.767 17.96 12.62 21.822 13 21.822 13S22.202 16.862 20.055 19.01" fill="#d62176" data-fill-palette-color="quaternary"></path></g></svg></g></svg></g></svg></g></svg></g><g></g></svg></g><defs></defs></svg><rect width="224.71474547069533" height="247.2" fill="none" stroke="none" visibility="hidden"></rect></g></svg></g></svg>